<svg xmlns="http://www.w3.org/2000/svg" viewBox="0 0 64 64">
  <defs>
    <linearGradient id="grad" x1="0%" y1="0%" x2="100%" y2="100%">
      <stop offset="0%" stop-color="#3b82f6"/>
      <stop offset="100%" stop-color="#6366f1"/>
    </linearGradient>
  </defs>
  <rect width="64" height="64" rx="18" ry="18" fill="#020617"/>
  <circle cx="32" cy="32" r="22" fill="url(#grad)"/>
  <path
    d="M22 38V24h8.5c3 0 4.8 1.8 4.8 4.3 0 2.6-1.8 4.3-4.8 4.3H25v5.4H22zm3-8h5.2c1.3 0 2-0.8 2-1.7 0-0.9-0.7-1.7-2-1.7H25v3.4z
       M35 38l2.2-2.5c1.6 1.2 3.2 1.7 4.6 1.7 1.4 0 2.1-0.5 2.1-1.2 0-0.8-0.6-1.1-2.9-1.7-2.9-0.7-4.8-1.7-4.8-4.4 0-2.7 2.2-4.5 5.7-4.5 2.4 0 4.3 0.7 5.8 1.9L45.8 30c-1.3-1-2.7-1.5-4.1-1.5-1.2 0-1.9 0.5-1.9 1.2 0 0.8 0.6 1.1 3 1.7 2.9 0.7 4.7 1.8 4.7 4.4 0 2.9-2.2 4.6-6 4.6-2.5 0-4.9-0.8-6.5-2.4z"
    fill="#f9fafb"
  />
</svg>
